<svg viewBox="0 0 1792 1792" xmlns="http://www.w3.org/2000/svg"><path d="m 160,256
c -50.66657,0 -90.000056,17.3334 -118,52 -27.999944,34.6666 -42,78.0001 -42,130 0,42.66658 18.333407,88.33343 55,137 36.666593,48.66657 75.66675,87.00006 117,115 22.66662,16.66663 91.00022,64.33349 205,143
l 262,182
c 7.33332,4.6667 21.66671,15 43,31 21.33329,16 39.33336,28.6667 54,38 14.66664,9.3333 32.00004,20 52,32 19.99996,12 39.00004,21 57,27 17.99996,6 34.6667,9 50,9
h 2
c 14.66664,0 31.33337,-3 50,-9 13.97022,-4.4904 28.43922,-11.2231 43.15625,-19.0742
l 202.22855,-168.47853 0.6425,-0.51954
c 30.73,-24.96737 71.6022,-40.29999 110.1055,-44.1875
L 1621,690
c 48.6666,-33.99994 89.3334,-75.0001 122,-123 32.6666,-47.9999 49,-98.33344 49,-151 0.6667,-43.99992 -15,-81.66673 -47,-113 -32,-31.33327 -69.6667,-47 -113,-47
z

M 0,710
v 794
c 0,44 15.666729,81.6667 47,113 31.333271,31.3333 69.00008,47 113,47
h 691.9043
v -56.1719
c -22.0372,-8.8429 -44.00617,-22.8483 -59.90039,-40.7285
l -1.30664,-1.4707 -38.38282,-45.8125 -0.95117,-1.1875
c -23.24814,-29.0594 -35.68853,-73.5796 -33.16797,-107.5996 2.683,-36.2115 25.50983,-82.7753 56.48633,-107.5586
l -2.0625,1.6855 45.08398,-37.5585
C 806.95072,1264.3265 796.08092,1260.5852 785,1256
c -38.66659,-16 -70.00004,-32 -94,-48 -23.99996,-16 -55.00008,-38 -93,-66
C 508.00018,1076.0002 342.33285,960.99968 101,797 63.000076,771.66672 29.333275,742.6666 0,710
Z

m 1792,0
c -28.6666,31.99994 -62,61.00006 -100,87 -63.5044,42.98168 -112.9499,77.15522 -167.5703,114.57031 0.937,-0.024 1.9309,-0.13867 2.8515,-0.13867
h 111.9239
c 34.2429,0 80.3126,16.47508 108.4511,44.61328
v 0.004 0.002
c 26.9029,26.90536 42.9725,70.09458 44.3438,103.77338
z

m -469.9121,334.0918
c -17.0995,0 -31.8668,5.0523 -44.3027,15.1562
l -419.1309,349.1797
c -3.8861,3.1092 -6.0234,7.2869 -6.41211,12.5332 -0.38872,5.2464 0.97098,9.813 4.08008,13.6993
l 36.14062,43.1367
c 3.10918,3.4976 7.19182,5.6348 12.24414,6.4121 4.66336,0.3888 9.3268,-0.971 13.99024,-4.0801
l 403.39063,-336.3555 403.3926,336.3555
c 3.109,2.7203 7.19,4.0801 12.2422,4.0801
h 1.748
c 5.0523,-0.7773 9.1333,-2.9145 12.2422,-6.4121
l 36.1426,-43.1367
c 3.1088,-3.8863 4.4688,-8.4529 4.08,-13.6993 -0.3884,-5.2463 -2.5258,-9.424 -6.4121,-12.5332
l -127.664,-106.0937
v -237.8399
c 0,-5.4405 -1.7487,-9.9084 -5.2461,-13.4062 -3.4976,-3.4975 -7.9656,-5.2461 -13.4063,-5.2461
h -111.9238
c -5.4407,0 -9.9106,1.7486 -13.4082,5.2461 -3.4977,3.4978 -5.2461,7.9657 -5.2461,13.4062
v 113.6739
l -142.2363,-118.92
c -12.436,-10.1039 -27.2054,-15.1562 -44.3047,-15.1562
z

m 0,150.9805 -335.18751,276.3125
c 0,0.3887 -0.0967,0.9707 -0.29101,1.748 -0.19428,0.7771 -0.29297,1.3613 -0.29297,1.75
v 279.8086
c 0,10.1043 3.69242,18.8484 11.07617,26.2324 7.38382,7.3838 16.12832,11.0762 26.23242,11.0762
h 223.8477
v -223.8477
h 149.2324
V 1792
h 223.8476
c 10.1041,0 18.8485,-3.6924 26.2325,-11.0762 7.3835,-7.384 11.0742,-16.1281 11.0742,-26.2324
v -279.8086
c 2e-4,-1.5546 -0.1934,-2.7207 -0.5821,-3.498
z" fill="#fff"/></svg>