<?xml version="1.0" encoding="UTF-8" standalone="no"?>
<svg
   width="1792"
   height="1792"
   viewBox="0 0 1792 1792"
   version="1.1"
   id="svg1"
   sodipodi:docname="home.svg"
   inkscape:version="1.3 (0e150ed6c4, 2023-07-21)"
   xmlns:inkscape="http://www.inkscape.org/namespaces/inkscape"
   xmlns:sodipodi="http://sodipodi.sourceforge.net/DTD/sodipodi-0.dtd"
   xmlns="http://www.w3.org/2000/svg"
   xmlns:svg="http://www.w3.org/2000/svg">
  <defs
     id="defs1" />
  <sodipodi:namedview
     id="namedview1"
     pagecolor="#000000"
     bordercolor="#000000"
     borderopacity="0.25"
     inkscape:showpageshadow="2"
     inkscape:pageopacity="0.0"
     inkscape:pagecheckerboard="0"
     inkscape:deskcolor="#d1d1d1"
     inkscape:zoom="0.13980697"
     inkscape:cx="307.56692"
     inkscape:cy="1169.4696"
     inkscape:window-width="1280"
     inkscape:window-height="727"
     inkscape:window-x="0"
     inkscape:window-y="0"
     inkscape:window-maximized="1"
     inkscape:current-layer="svg1" />
  <path
     d="m 1657.8598,1474.8825 v 279.8095 q 0,15.1564 -11.0754,26.2324 Q 1635.7084,1792 1620.5523,1792 H 1396.7045 V 1568.1521 H 1247.4729 V 1792 h -223.8481 q -15.1562,0 -26.23195,-11.0756 -11.07563,-11.076 -11.07563,-26.2324 v -279.8095 q 0,-0.5831 0.29141,-1.7488 0.29141,-1.166 0.29141,-1.7491 l 335.18866,-276.312 335.1885,276.312 q 0.583,1.166 0.5826,3.4979 z m 129.9952,-40.2228 -36.1421,43.1371 q -4.6634,5.2465 -12.2418,6.4124 h -1.7487 q -7.5782,0 -12.2417,-4.0805 l -403.392,-336.3545 -403.39238,336.3545 q -6.99516,4.6637 -13.9902,4.0805 -7.57849,-1.1659 -12.24227,-6.4124 l -36.14171,-43.1371 q -4.66365,-5.8294 -4.08058,-13.699 0.58307,-7.8695 6.41222,-12.5332 l 419.13162,-349.1792 q 18.654,-15.156 44.3033,-15.156 25.649,0 44.303,15.156 l 142.2365,118.9194 v -113.673 q 0,-8.1608 5.2466,-13.4075 5.2464,-5.2463 13.4075,-5.2463 h 111.9239 q 8.161,0 13.4074,5.2463 5.2462,5.2467 5.2462,13.4075 v 237.8384 l 127.6633,106.0944 q 5.8294,4.6637 6.4121,12.5332 0.5831,7.8696 -4.0802,13.699 z"
     fill="#fff"
     id="path1-7"
     style="display:none;fill:#ff0000;stroke:#000000;stroke-width:268.827;stroke-dasharray:none;stroke-opacity:1"
     inkscape:label="house outline" />
  <path
     d="m 1657.8598,1474.8825 v 279.8095 q 0,15.1564 -11.0754,26.2324 Q 1635.7084,1792 1620.5523,1792 H 1396.7045 V 1568.1521 H 1247.4729 V 1792 h -223.8481 q -15.1562,0 -26.23195,-11.0756 -11.07563,-11.076 -11.07563,-26.2324 v -279.8095 q 0,-0.5831 0.29141,-1.7488 0.29141,-1.166 0.29141,-1.7491 l 335.18866,-276.312 335.1885,276.312 q 0.583,1.166 0.5826,3.4979 z m 129.9952,-40.2228 -36.1421,43.1371 q -4.6634,5.2465 -12.2418,6.4124 h -1.7487 q -7.5782,0 -12.2417,-4.0805 l -403.392,-336.3545 -403.39238,336.3545 q -6.99516,4.6637 -13.9902,4.0805 -7.57849,-1.1659 -12.24227,-6.4124 l -36.14171,-43.1371 q -4.66365,-5.8294 -4.08058,-13.699 0.58307,-7.8695 6.41222,-12.5332 l 419.13162,-349.1792 q 18.654,-15.156 44.3033,-15.156 25.649,0 44.303,15.156 l 142.2365,118.9194 v -113.673 q 0,-8.1608 5.2466,-13.4075 5.2464,-5.2463 13.4075,-5.2463 h 111.9239 q 8.161,0 13.4074,5.2463 5.2462,5.2467 5.2462,13.4075 v 237.8384 l 127.6633,106.0944 q 5.8294,4.6637 6.4121,12.5332 0.5831,7.8696 -4.0802,13.699 z"
     fill="#fff"
     id="path1"
     style="display:none;fill:#ff0000;stroke-width:0.582938"
     inkscape:label="house icon" />
  <path
     id="path1-6"
     style="display:none;fill:#f9f9f9"
     d="m 160,256 c -50.66657,0 -90.000056,17.3334 -118,52 -27.999944,34.6666 -42,78.0001 -42,130 0,42.66658 18.333407,88.33343 55,137 36.666593,48.66657 75.66675,87.00006 117,115 22.66662,16.66663 91.00022,64.33349 205,143 l 262,182 c 7.33332,4.6667 21.66671,15 43,31 21.33329,16 39.33336,28.6667 54,38 14.66664,9.3333 32.00004,20 52,32 19.99996,12 39.00004,21 57,27 17.99996,6 34.6667,9 50,9 h 2 c 14.66664,0 31.33337,-3 50,-9 13.97022,-4.4904 28.43922,-11.2231 43.15625,-19.0742 l 202.22855,-168.47853 0.6425,-0.51954 c 30.73,-24.96737 71.6022,-40.29999 110.1055,-44.1875 L 1621,690 c 48.6666,-33.99994 89.3334,-75.0001 122,-123 32.6666,-47.9999 49,-98.33344 49,-151 0.6667,-43.99992 -15,-81.66673 -47,-113 -32,-31.33327 -69.6667,-47 -113,-47 z M 0,710 v 794 c 0,44 15.666729,81.6667 47,113 31.333271,31.3333 69.00008,47 113,47 h 691.9043 v -56.1719 c -22.0372,-8.8429 -44.00617,-22.8483 -59.90039,-40.7285 l -1.30664,-1.4707 -38.38282,-45.8125 -0.95117,-1.1875 c -23.24814,-29.0594 -35.68853,-73.5796 -33.16797,-107.5996 2.683,-36.2115 25.50983,-82.7753 56.48633,-107.5586 l -2.0625,1.6855 45.08398,-37.5585 C 806.95072,1264.3265 796.08092,1260.5852 785,1256 c -38.66659,-16 -70.00004,-32 -94,-48 -23.99996,-16 -55.00008,-38 -93,-66 C 508.00018,1076.0002 342.33285,960.99968 101,797 63.000076,771.66672 29.333275,742.6666 0,710 Z m 1792,0 c -28.6666,31.99994 -62,61.00006 -100,87 -63.5044,42.98168 -112.9499,77.15522 -167.5703,114.57031 0.937,-0.024 1.9309,-0.13867 2.8515,-0.13867 h 111.9239 c 34.2429,0 80.3126,16.47508 108.4511,44.61328 v 0.004 0.002 c 26.9029,26.90536 42.9725,70.09458 44.3438,103.77338 z m -469.9121,334.0918 c -17.0995,0 -31.8668,5.0523 -44.3027,15.1562 l -419.1309,349.1797 c -3.8861,3.1092 -6.0234,7.2869 -6.41211,12.5332 -0.38872,5.2464 0.97098,9.813 4.08008,13.6993 l 36.14062,43.1367 c 3.10918,3.4976 7.19182,5.6348 12.24414,6.4121 4.66336,0.3888 9.3268,-0.971 13.99024,-4.0801 l 403.39063,-336.3555 403.3926,336.3555 c 3.109,2.7203 7.19,4.0801 12.2422,4.0801 h 1.748 c 5.0523,-0.7773 9.1333,-2.9145 12.2422,-6.4121 l 36.1426,-43.1367 c 3.1088,-3.8863 4.4688,-8.4529 4.08,-13.6993 -0.3884,-5.2463 -2.5258,-9.424 -6.4121,-12.5332 l -127.664,-106.0937 v -237.8399 c 0,-5.4405 -1.7487,-9.9084 -5.2461,-13.4062 -3.4976,-3.4975 -7.9656,-5.2461 -13.4063,-5.2461 h -111.9238 c -5.4407,0 -9.9106,1.7486 -13.4082,5.2461 -3.4977,3.4978 -5.2461,7.9657 -5.2461,13.4062 v 113.6739 l -142.2363,-118.92 c -12.436,-10.1039 -27.2054,-15.1562 -44.3047,-15.1562 z m 0,150.9805 -335.18751,276.3125 c 0,0.3887 -0.0967,0.9707 -0.29101,1.748 -0.19428,0.7771 -0.29297,1.3613 -0.29297,1.75 v 279.8086 c 0,10.1043 3.69242,18.8484 11.07617,26.2324 7.38382,7.3838 16.12832,11.0762 26.23242,11.0762 h 223.8477 v -223.8477 h 149.2324 V 1792 h 223.8476 c 10.1041,0 18.8485,-3.6924 26.2325,-11.0762 7.3835,-7.384 11.0742,-16.1281 11.0742,-26.2324 v -279.8086 c 2e-4,-1.5546 -0.1934,-2.7207 -0.5821,-3.498 z"
     inkscape:label="envelope-home" />
  <path
     id="path1-9"
     style="display:none;fill:#f9f9f9"
     d="M 896,128 C 773.33358,128 667.99982,172.00018 580,260 492.00018,347.99982 448,453.33358 448,576 v 192 h -32 c -26.66661,0 -49.33337,9.33337 -68,28 -18.66663,18.66663 -28,41.33339 -28,68 v 576 c 0,26.6666 9.33337,49.3334 28,68 18.66663,18.6666 41.33339,28 68,28 h 349.87305 l -13.5586,-16.1836 -0.95117,-1.1875 c -23.24814,-29.0594 -35.68853,-73.5796 -33.16797,-107.5996 2.683,-36.2115 25.50983,-82.7753 56.48633,-107.5586 l -2.0625,1.6855 419.76566,-349.70893 0.6425,-0.51954 c 35.8366,-29.1164 85.4864,-45.24804 129.0606,-45.24804 v 0.004 c 37.1763,0 78.7072,11.83318 112.3769,33.36329 11.4035,-8.25024 24.3186,-14.96665 37.5372,-20.12696 V 864 c 0,-26.66661 -9.3335,-49.33337 -28,-68 -18.6666,-18.66663 -41.3335,-28 -68,-28 h -32 V 576 C 1344,453.33358 1299.9998,347.99982 1212,260 1124.0002,172.00018 1018.6664,128 896,128 Z m 0,192 c 70.66653,0 131.0001,25.0001 181,75 49.9999,49.9999 75,110.33347 75,181 V 768 H 640 V 576 c 0,-70.66653 25.0001,-131.0001 75,-181 49.9999,-49.9999 110.33347,-75 181,-75 z m 426.0879,724.0918 c -17.0995,0 -31.8668,5.0523 -44.3027,15.1562 l -419.1309,349.1797 c -3.8861,3.1092 -6.0234,7.2869 -6.41211,12.5332 -0.38872,5.2464 0.97098,9.813 4.08008,13.6993 l 36.14062,43.1367 c 3.10918,3.4976 7.19182,5.6348 12.24414,6.4121 4.66336,0.3888 9.3268,-0.971 13.99024,-4.0801 l 403.39063,-336.3555 403.3926,336.3555 c 3.109,2.7203 7.19,4.0801 12.2422,4.0801 h 1.748 c 5.0523,-0.7773 9.1333,-2.9145 12.2422,-6.4121 l 36.1426,-43.1367 c 3.1088,-3.8863 4.4688,-8.4529 4.08,-13.6993 -0.3884,-5.2463 -2.5258,-9.424 -6.4121,-12.5332 l -127.664,-106.0937 v -237.8399 c 0,-5.4405 -1.7487,-9.9084 -5.2461,-13.4062 -3.4976,-3.4975 -7.9656,-5.2461 -13.4063,-5.2461 h -111.9238 c -5.4407,0 -9.9106,1.7486 -13.4082,5.2461 -3.4977,3.4978 -5.2461,7.9657 -5.2461,13.4062 v 113.6739 l -142.2363,-118.92 c -12.436,-10.1039 -27.2054,-15.1562 -44.3047,-15.1562 z m 0,150.9805 -335.18751,276.3125 c 0,0.3887 -0.0967,0.9707 -0.29101,1.748 -0.19428,0.7771 -0.29297,1.3613 -0.29297,1.75 v 279.8086 c 0,10.1043 3.69242,18.8484 11.07617,26.2324 7.38382,7.3838 16.12832,11.0762 26.23242,11.0762 h 223.8477 v -223.8477 h 149.2324 V 1792 h 223.8476 c 10.1041,0 18.8485,-3.6924 26.2325,-11.0762 7.3835,-7.384 11.0742,-16.1281 11.0742,-26.2324 v -279.8086 c 2e-4,-1.5546 -0.1934,-2.7207 -0.5821,-3.498 z"
     inkscape:label="lock-home" />
  <path
     id="path1-3"
     style="display:none;fill:#f9f9f9"
     d="M 896,128 C 759.33361,125.33334 630.99976,159.66681 511,231 391.00024,302.33319 297.66653,395.6669 231,511 164.33347,626.3331 130,754.66695 128,896 c -2,141.3331 32.33347,270.0002 103,386 70.66653,115.9998 164.00024,209.0002 280,279 103.74439,62.6043 217.43002,96.4621 340.9043,102.0098 v -55.1817 c -22.0372,-8.8429 -44.00617,-22.8483 -59.90039,-40.7285 l -1.30664,-1.4707 -38.38282,-45.8125 -0.95117,-1.1875 c -23.24814,-29.0594 -35.68853,-73.5796 -33.16797,-107.5996 2.683,-36.2115 25.50983,-82.7753 56.48633,-107.5586 l -2.0625,1.6855 112.82422,-93.9941 C 878.82305,1208.9457 871.82511,1206.1299 864,1202 c -4.66666,-2.6667 -11.66669,-9.6667 -21,-21 -9.33331,-11.3333 -19.00002,-16.3333 -29,-15 -2.66666,1.3333 -7.00002,2.6667 -13,4 -5.99998,1.3333 -11,2 -15,2 -4,0 -9.33335,-1.3333 -16,-4 -4.66666,-1.3333 -11.66669,-5 -21,-11 l -19,-11 -13,-7 -16,-8 c -3.33333,-1.3333 -7.33334,-4.3333 -12,-9 -4.66666,-4.6667 -7.66667,-9.3333 -9,-14 -1.33333,-4 -3,-12 -5,-24 -2,-12 -4.66667,-20.6667 -8,-26 -4,-5.3333 -9.66668,-11.6667 -17,-19 -7.33332,-7.3333 -14.00002,-11 -20,-11 5.33332,0.6667 5.33332,-3.6667 0,-13 -5.33332,-9.3333 -10,-16.00002 -14,-20 -1.33333,-0.66667 -5.33335,-5.00002 -12,-13 -6.66665,-7.99998 -12.33334,-14.33334 -17,-19 -4.66666,-4.66666 -8.66667,-10.66668 -12,-18 -3.33333,-7.33332 -4,-13.33334 -2,-18 l -2,-3 c -1.33333,-2 -3.66667,-3.33333 -7,-4 l -9,-3 -6,-2 c 2,3.33333 3.66667,8.33335 5,15 1.33333,6.66665 3,11.66667 5,15 l 17,29 c 17.3333,28 25.33333,48.6667 24,62 -4,1.3333 -6.66667,0.6667 -8,-2 l -3,-11 -2,-10 c -1.33333,-4 -6.33335,-8.3333 -15,-13 -8.66665,-4.66665 -14,-9.33334 -16,-14 l 3,-1 2,-1 c 1.33333,-5.99998 -2.00002,-13.66669 -10,-23 -7.99998,-9.33331 -11.33333,-16 -10,-20 -5.33332,-3.33333 -10,-11.00002 -14,-23 -4,-11.99998 -7.33334,-19.66667 -10,-23 -2.66666,-4 -6,-7.33334 -10,-10 l -15,-10 -12,-8 -8,-9 c -21.99996,-26.66661 -28.66665,-41 -20,-43 -7.99998,2.66666 -15.00002,-3.6667 -21,-19 -5.99998,-15.3333 -8,-27.00002 -6,-35 l -2,-1 c 0,-2 0.33333,-9.66669 1,-23 0.66667,-13.33331 1.66667,-25.33335 3,-36 1.33333,-10.66665 4.33334,-16 9,-16 -4,1.33333 -7.33334,-2.66669 -10,-12 -2.66666,-9.33331 -3,-15.66667 -1,-19 0.66667,-2 3.66668,-0.66666 9,4 l 9,9 c 8.66665,-4.66666 12,-10.66668 10,-18 -1.33333,-2.66666 -8.33336,-9.66669 -21,-21 -28.66661,-18.66663 -43.33333,-27.66667 -44,-27 4,-7.33332 2.99998,-13.66668 -3,-19 -5.99998,4 -9.66667,5 -11,3 -1.33333,-2 -2.33333,-5.66668 -3,-11 -0.66667,-5.33332 -2.33334,-8.33333 -5,-9 -3.33333,-0.66667 -7.33334,-3.33334 -12,-8 59.33321,-94.66648 137.66686,-168.66677 235,-222 l 22,-1 c 4.66666,0.66667 9.66668,2.33334 15,5 5.33332,2.66666 10.33334,6.33334 15,11 l 11,10 c 1.33333,-4 -0.33334,-10.00002 -5,-18 1.33333,-4 8.66669,-8 22,-12 15.3333,-2 25.33334,-1.66666 30,1 l -20,-25 -5,5 c -5.33332,-4.66666 -19.33338,-2.33331 -42,7 l -10,6 -13,6 c -4,1.33333 -8,1.66667 -12,1 31.99994,-17.3333 63.33339,-31.00002 94,-41 l 10,9 11,9 c -2,-1.33333 -3.33333,-0.66666 -4,2 -2.66666,7.99998 -2.66666,14.66668 0,20 4,4.66666 8.66668,7.33333 14,8 5.33332,0.66667 12.00002,0.33333 20,-1 l 16,-2 10,1 c 21.33329,2 29.66666,-2e-5 25,-6 2,3.33333 4.33334,9.00002 7,17 2.66666,7.99998 5.66667,13.66667 9,17 3.33333,-2.66666 4,-7.33335 2,-14 -2,-6.66665 -2,-11.33334 0,-14 0,-2 2,-3.33333 6,-4 l 12,-4 8,-4 c 4,-2.66666 1.33331,-7.33335 -8,-14 -0.66667,-0.66667 -3.33334,-1.66667 -8,-3 -4.66666,-1.33333 -8.66667,-2.66667 -12,-4 -3.33333,-1.33333 -6.66667,-3 -10,-5 -3.33333,-2 -5,-4.66667 -5,-8 0,-3.33333 1.66667,-7.33334 5,-12 4.66666,-3.33333 11.33335,-4.66667 20,-4 8.66665,0.66667 15.33334,2.33334 20,5 17.99996,9.99998 20.66664,19.00002 8,27 6.66665,0.66667 14.66669,3.33334 24,8 9.33331,4.66666 13,9.66668 11,15 5.33332,-9.99998 10.66668,-15 16,-15 4,1.33333 7.33334,6.00002 10,14 l 5,13 c 4.66666,6.66665 10.00002,8.33333 16,5 5.99998,-3.33333 11.66668,-9.00002 17,-17 5.33332,-7.99998 8.33333,-11.66667 9,-11 -6.66665,-2.66666 -7.33332,-5.33334 -2,-8 9.99998,-5.99998 19.00002,-7.66666 27,-5 2.66666,1.33333 5.33334,4.33334 8,9 5.99998,11.99998 4.99998,17.66667 -3,17 6.66665,5.33332 9.33333,12.00002 8,20 -1.33333,7.99998 -6.66669,11.66667 -16,11 -2.66666,-0.66667 -7.33335,-2.33334 -14,-5 -6.66665,-2.66666 -11.66667,-4.33333 -15,-5 -3.33333,-0.66667 -8.00002,1 -14,5 -2,3.33333 -5.33334,9.00002 -10,17 -4.66666,7.99998 -8.66667,13.66667 -12,17 -9.76321,9.76321 -25.98834,13.38689 -48.46094,11.07617 0.89987,0.56185 0.4099,2.51316 -1.53906,5.92383 l -10,14 -7,8 c -5.99998,6.66665 -10,14.33335 -12,23 0,2 -0.33333,6.66668 -1,14 -0.66667,7.33332 -2,13 -4,17 7.99998,-2 14.33334,2.00002 19,12 4,9.33331 4,14.33333 0,15 21.99996,-3.33333 41.33337,-1.99998 58,4 23.99996,8.66665 37.66667,17.33335 41,26 4,-5.99998 13.6667,-6.33332 29,-1 5.99998,3.33333 11.33334,13.33337 16,30 3.33333,9.99998 8.00002,18.66668 14,26 6,7.33332 12.6667,9.33333 20,6 l 3,-2 c 4,-1.33333 6.3333,-2.33333 7,-3 0.6667,-0.66667 2.3333,-2 5,-4 2.6667,-2 4,-3.66667 4,-5 l -2,-4 c -4,-3.33333 -7.3333,-8.66668 -10,-16 -2.6667,-7.33332 -2.3333,-13.66668 1,-19 2,-2.66666 7.3333,-6.66668 16,-12 8.6667,-5.33332 14,-10.66668 16,-16 2.6667,-7.99998 -0.6667,-15.00002 -10,-21 -9.3333,-5.99998 -14,-11.33334 -14,-16 0.6667,-3.33333 3,-7.33334 7,-12 4,-4.66666 5.6667,-9 5,-13 0,-2 -1,-6.00002 -3,-12 -2,-5.99998 -3.3333,-10.66667 -4,-14 -0.6667,-3.33333 0.6667,-7 4,-11 4.6667,-2 15.6667,-1.66666 33,1 17.3333,2.66666 28.6667,5.66667 34,9 1.3333,0.66667 5.6667,2.66667 13,6 7.3333,3.33333 13.3333,6.33334 18,9 4.6667,2.66666 7.3333,5.33334 8,8 h -5 c 5.3333,4 8.3333,8.66668 9,14 0.6667,5.33332 -2,9.33334 -8,12 4,-0.66667 9.3333,0.33334 16,3 10.6667,4 11,7.66667 1,11 l 9,-2 8,-3 c 0.6667,0 2.3333,-1 5,-3 2.6667,-2 4.3333,-3 5,-3 0.6667,0 2,-0.33333 4,-1 2,-0.66667 4,-0.33333 6,1 0.6667,-1.33333 2.3333,-3 5,-5 2.6667,-2 5,-5.33334 7,-10 2,-4.66666 4.3333,-6.33333 7,-5 l 6,3 4,5 3,7 2,5 c 2,2.66666 5.3333,6 10,10 4.6667,4 7.6667,7.66667 9,11 0.6667,1.33333 2,6.33335 4,15 2,8.66665 4.6667,14.33334 8,17 3.3333,2.66666 8.3333,5 15,7 0.6667,0.66667 3.6667,0.33333 9,-1 5.3333,-1.33333 9.3333,-1.66667 12,-1 2.6667,0.66667 4,3.33334 4,8 4,-4 6,-6.66667 6,-8 1.3333,8.66665 3.6667,15.66668 7,21 3.3333,5.33332 9,7.66667 17,7 l -2,22 c -2,4 -7,6.66667 -15,8 -8,1.33333 -13,2.66667 -15,4 -1.3333,0.66667 -6,4.66668 -14,12 -8,7.33332 -11.3333,11.66667 -10,13 -11.3333,-12.66664 -28.3334,-16.33332 -51,-11 -25.3333,4 -42.6667,8 -52,12 -10.6667,5.33332 -18,10.33334 -22,15 -0.6667,0.66667 -1.6667,3 -3,7 -1.3333,4 -3,7.66667 -5,11 -2,3.33333 -3.6667,5 -5,5 4.6667,0 9.3333,-3.00002 14,-9 l 9,-10 c 17.3333,-11.33331 31.6667,-15.33333 43,-12 14.6667,4 17,9.33335 7,16 -0.6667,2 -4,2.66667 -10,2 h -12 c 6,2 11,4 15,6 4,2 5,5 3,9 10.6667,5.99998 12.6667,12.66668 6,20 -8.6667,8.66665 -19,12.33333 -31,11 2,0 2,1.33334 0,4 l -17,11 c -1.3333,0.66667 -5.6667,2.33334 -13,5 -7.3333,2.66666 -12.3333,5.66667 -15,9 -2,2.66666 -3,6.66668 -3,12 0,5.33332 -0.3333,9.33334 -1,12 -0.6667,2.66666 -3.3333,3.33333 -8,2 -1.3333,4.66666 -7.3333,8 -18,10 -10.6667,2 -17.6667,5.33334 -21,10 4.6667,5.33332 4.3333,10.66668 -1,16 -8,6.66665 -15,5.99998 -21,-2 -2.6667,1.33333 -5,4.66668 -7,10 -2,5.33332 -4.6667,9 -8,11 4.6667,7.33332 4,12.66667 -2,16 l 5,2 7,5 5,3 c -2.6667,5.99998 -6.3333,9 -11,9 4,10.66665 -1,22.33336 -15,35 l -12,8 -16,7 -8,3 c -7.3333,6.66665 -12.33334,13.00002 -15,19 -2.66666,5.99998 -3,12.00002 -1,18 2,5.99998 8,10 18,12 l 1,8 v 18 l 1,8 c 0.6667,4.66666 1.3333,9 2,13 0.6667,3.99998 0.6667,8.6667 0,14 -0.6667,5.3333 -2.3333,8.3333 -5,9 -2.6667,0.6667 -6.3333,0 -11,-2 -5.33332,-2.6667 -11.66668,-17.3334 -19,-44 -1.33333,-6.66665 -5.33335,-14.66669 -12,-24 -3.33333,4.66666 -6,7 -8,7 h -5 c -1.33333,0 -3.33334,-1.33334 -6,-4 l -7,-6 c -2.66666,-2 -8.33335,-3.66667 -17,-5 -8.66665,-1.33333 -14,-3 -16,-5 -15.99996,11.99998 -25.66667,8.99996 -29,-9 -0.66667,4 -0.33333,8.66668 1,14 l 2,9 c -4.66666,8.66665 -12.00002,9.33332 -22,2 -3.33333,-3.33333 -12.33336,-3.66666 -27,-1 -14.66664,2.66666 -24.33334,3 -29,1 l 4,3 4,3 c 0,2.66666 -1,4.66667 -3,6 l -4,2 h -4 l -5,1 -10,11 -9,9 c 4,10.66663 6,19 6,25 0,6 -1,14.3333 -3,25 -2,10.6667 -3,19.3333 -3,26 0.66667,10.6667 4.00002,23 10,37 5.99998,14 13.33335,23.6667 22,29 4.66666,2.6667 12.66669,4.3333 24,5 11.33331,0.6667 19.33334,0 24,-2 4,-2.6667 7,-5 9,-7 2,-2 3.66667,-5.6667 5,-11 l 3,-11 c 4.66666,-12.6667 13.33336,-19.3333 26,-20 7.99998,0.6667 14,1.6667 18,3 4,1.3333 5.33333,4.3333 4,9 l -4,13 -7,14 -6,12 -3,23 -3,17 15,1 2,-6 1,-6 c 3.02739,4.8438 7.92905,7.5016 14.25586,8.4961 l 258.12894,-215.04883 0.6425,-0.51954 c 35.8366,-29.1164 85.4864,-45.24804 129.0606,-45.24804 v 0.004 c 37.1763,0 78.7072,11.83318 112.3769,33.36329 27.7322,-20.06367 64.3088,-31.61524 92.8184,-31.61524 h 111.9238 c 7.612,0 15.8568,0.94029 24.3106,2.51563 C 1663.6193,907.94824 1664.029,902.03682 1664,896 1663.3333,757.33361 1628.9998,628.99976 1561,511 1493.0002,393.00024 1399.9998,299.66653 1282,231 1164.0002,162.33347 1035.3331,128 896,128 Z m 426.0879,916.0918 c -17.0995,0 -31.8668,5.0523 -44.3027,15.1562 l -419.1309,349.1797 c -3.8861,3.1092 -6.0234,7.2869 -6.41211,12.5332 -0.38872,5.2464 0.97098,9.813 4.08008,13.6993 l 36.14062,43.1367 c 3.10918,3.4976 7.19182,5.6348 12.24414,6.4121 4.66336,0.3888 9.3268,-0.971 13.99024,-4.0801 l 403.39063,-336.3555 403.3926,336.3555 c 3.109,2.7203 7.19,4.0801 12.2422,4.0801 h 1.748 c 5.0523,-0.7773 9.1333,-2.9145 12.2422,-6.4121 l 36.1426,-43.1367 c 3.1088,-3.8863 4.4688,-8.4529 4.08,-13.6993 -0.3884,-5.2463 -2.5258,-9.424 -6.4121,-12.5332 l -127.664,-106.0937 v -237.8399 c 0,-5.4405 -1.7487,-9.9084 -5.2461,-13.4062 -3.4976,-3.4975 -7.9656,-5.2461 -13.4063,-5.2461 h -111.9238 c -5.4407,0 -9.9106,1.7486 -13.4082,5.2461 -3.4977,3.4978 -5.2461,7.9657 -5.2461,13.4062 v 113.6739 l -142.2363,-118.92 c -12.436,-10.1039 -27.2054,-15.1562 -44.3047,-15.1562 z m 0,150.9805 -335.18751,276.3125 c 0,0.3887 -0.0967,0.9707 -0.29101,1.748 -0.19428,0.7771 -0.29297,1.3613 -0.29297,1.75 v 279.8086 c 0,10.1043 3.69242,18.8484 11.07617,26.2324 7.38382,7.3838 16.12832,11.0762 26.23242,11.0762 h 223.8477 v -223.8477 h 149.2324 V 1792 h 223.8476 c 10.1041,0 18.8485,-3.6924 26.2325,-11.0762 7.3835,-7.384 11.0742,-16.1281 11.0742,-26.2324 v -279.8086 c 2e-4,-1.5546 -0.1934,-2.7207 -0.5821,-3.498 z"
     inkscape:label="globe-home" />
  <path
     id="path1-2"
     style="display:none;fill:#f9f9f9"
     d="m 1280,128 c -122.6664,0.66667 -228.0002,44.66684 -316,132 -87.99982,87.33316 -132,192.66691 -132,316 V 768 H 160 c -26.66661,0 -49.33337,9.33337 -68,28 -18.666629,18.66663 -28,41.33339 -28,68 v 576 c 0,26.6666 9.333371,49.3334 28,68 18.66663,18.6666 41.33339,28 68,28 h 605.87305 l -13.5586,-16.1836 -0.95117,-1.1875 c -23.24814,-29.0594 -35.68853,-73.5796 -33.16797,-107.5996 2.683,-36.2115 25.50983,-82.7753 56.48633,-107.5586 l -2.0625,1.6855 419.76566,-349.70893 0.6425,-0.51954 c 7.1259,-5.7896 14.9109,-10.91232 22.9727,-15.65039 V 864 c 0,-26.66661 -9.3334,-49.33337 -28,-68 -18.6666,-18.66663 -41.3334,-28 -68,-28 h -96 V 576 c 0,-70.66653 25.0001,-131.0001 75,-181 49.9999,-49.9999 110.3335,-75 181,-75 70.6665,0 131.0001,25.0001 181,75 49.9999,49.9999 75,110.33347 75,181 v 256 c 0,17.3333 6.3333,32.33336 19,45 12.6667,12.66664 27.6667,19 45,19 h 64 c 17.3333,0 32.3333,-6.33336 45,-19 12.6667,-12.66664 19,-27.6667 19,-45 V 576 c 1.3333,-121.99976 -42.3335,-227.33351 -131,-316 -88.6665,-88.66649 -194.3336,-132.66667 -317,-132 z m 42.0879,916.0918 c -17.0995,0 -31.8668,5.0523 -44.3027,15.1562 l -419.1309,349.1797 c -3.8861,3.1092 -6.0234,7.2869 -6.41211,12.5332 -0.38872,5.2464 0.97098,9.813 4.08008,13.6993 l 36.14062,43.1367 c 3.10918,3.4976 7.19182,5.6348 12.24414,6.4121 4.66336,0.3888 9.3268,-0.971 13.99024,-4.0801 l 403.39063,-336.3555 403.3926,336.3555 c 3.109,2.7203 7.19,4.0801 12.2422,4.0801 h 1.748 c 5.0523,-0.7773 9.1333,-2.9145 12.2422,-6.4121 l 36.1426,-43.1367 c 3.1088,-3.8863 4.4688,-8.4529 4.08,-13.6993 -0.3884,-5.2463 -2.5258,-9.424 -6.4121,-12.5332 l -127.664,-106.0937 v -237.8399 c 0,-5.4405 -1.7487,-9.9084 -5.2461,-13.4062 -3.4976,-3.4975 -7.9656,-5.2461 -13.4063,-5.2461 h -111.9238 c -5.4407,0 -9.9106,1.7486 -13.4082,5.2461 -3.4977,3.4978 -5.2461,7.9657 -5.2461,13.4062 v 113.6739 l -142.2363,-118.92 c -12.436,-10.1039 -27.2054,-15.1562 -44.3047,-15.1562 z m 0,150.9805 -335.18751,276.3125 c 0,0.3887 -0.0967,0.9707 -0.29101,1.748 -0.19428,0.7771 -0.29297,1.3613 -0.29297,1.75 v 279.8086 c 0,10.1043 3.69242,18.8484 11.07617,26.2324 7.38382,7.3838 16.12832,11.0762 26.23242,11.0762 h 223.8477 v -223.8477 h 149.2324 V 1792 h 223.8476 c 10.1041,0 18.8485,-3.6924 26.2325,-11.0762 7.3835,-7.384 11.0742,-16.1281 11.0742,-26.2324 v -279.8086 c 2e-4,-1.5546 -0.1934,-2.7207 -0.5821,-3.498 z"
     inkscape:label="unlock-home" />
</svg>
