<?xml version="1.0" encoding="utf-8"?>
<svg width="2048" height="1280" viewBox="0 0 2048 1280" xmlns="http://www.w3.org/2000/svg"><path d="M1900.308 0H147.69195C66.254181 0 0 66.25418 0 147.69199v984.61621c0 81.4414 66.254181 147.692 147.69195 147.692H1900.308c81.4414 0 147.692-66.2496 147.692-147.692V147.69199C2048 66.25418 1981.7503 0 1900.308 0Zm-748.3079 1023.7505L895.99989 1024V640.00151L704.00017 886.15533 511.99955 640.00151v383.99939H256.00113V256.00027h256.00023L704.00107 512.0005l191.99972-256.00023 255.99931-.25041Zm382.1824 63.9996-318.1828-447.74859h192.0006V256.00027h256.0003v384.00034h191.9997z" fill="#fff"/></svg>