<svg viewBox="0 0 1792 1792" xmlns="http://www.w3.org/2000/svg"><path d="M 384 344.0625
A 71.966714 71.966714 0 0 0 327.8125 371.0625
L 71.8125 691.0625
A 71.966714 71.966714 0 0 0 128 807.9375
L 232.0625 807.9375
L 232.0625 1376
A 71.966714 71.966714 0 0 0 304 1447.9375
L 945.66797 1447.9375
L 945.66797 1255.4277
C 945.66797 1231.7982 951.39585 1206.2798 961.34375 1182.5078
L 952.1875 1171.0625
A 71.966714 71.966714 0 0 0 896 1144.0625
L 535.9375 1144.0625
L 535.9375 807.9375
L 640 807.9375
A 71.966714 71.966714 0 0 0 696.1875 691.0625
L 440.1875 371.0625
A 71.966714 71.966714 0 0 0 384 344.0625
z

M 768 344.0625
A 71.966714 71.966714 0 0 0 711.8125 460.9375
L 839.8125 620.9375
A 71.966714 71.966714 0 0 0 896 647.9375
L 1256.0625 647.9375
L 1256.0625 733.66602
C 1303.9557 713.16193 1355.8086 702.00781 1408 702.00781
C 1460.1914 702.00781 1512.0443 713.16194 1559.9375 733.66602
L 1559.9375 416
A 71.966714 71.966714 0 0 0 1488 344.0625
L 768 344.0625
z

M 1408 836.42188
C 1338.1655 836.42187 1278.1983 861.46974 1228.0996 911.56836
C 1178.0009 961.66704 1152.9512 1021.6344 1152.9512 1091.4688
L 1152.9512 1200.7754
L 1134.7344 1200.7754
C 1119.553 1200.7754 1106.6485 1206.0879 1096.0215 1216.7148
C 1085.3945 1227.3418 1080.082 1240.2463 1080.082 1255.4277
L 1080.082 1583.3477
C 1080.082 1598.529 1085.3945 1611.4336 1096.0215 1622.0605
C 1106.6485 1632.6876 1119.553 1638 1134.7344 1638
L 1681.2656 1638
C 1696.4471 1638 1709.3516 1632.6876 1719.9785 1622.0605
C 1730.6055 1611.4336 1735.918 1598.529 1735.918 1583.3477
L 1735.918 1255.4277
C 1735.918 1240.2463 1730.6055 1227.3418 1719.9785 1216.7148
C 1709.3516 1206.0879 1696.4471 1200.7754 1681.2656 1200.7754
L 1663.0469 1200.7754
L 1663.0469 1091.4688
C 1663.0469 1021.6344 1637.9991 961.66704 1587.9004 911.56836
C 1537.8018 861.46974 1477.8345 836.42188 1408 836.42188
z

M 1408 945.72656
C 1448.2308 945.72656 1482.5779 959.96068 1511.043 988.42578
C 1539.5081 1016.891 1553.7422 1051.2381 1553.7422 1091.4688
L 1553.7422 1200.7754
L 1262.2578 1200.7754
L 1262.2578 1091.4688
C 1262.2578 1051.2381 1276.49 1016.891 1304.9551 988.42578
C 1333.4203 959.96068 1367.7693 945.72656 1408 945.72656
z" fill="#fff"/></svg>