<svg viewBox="0 0 1792 1792" xmlns="http://www.w3.org/2000/svg"><path d="m 1280,128
c -122.6664,0.66667 -228.0002,44.66684 -316,132 -87.99982,87.33316 -132,192.66691 -132,316
V 768
H 160
c -26.66661,0 -49.33337,9.33337 -68,28 -18.666629,18.66663 -28,41.33339 -28,68
v 576
c 0,26.6666 9.333371,49.3334 28,68 18.66663,18.6666 41.33339,28 68,28
h 605.87305
l -13.5586,-16.1836 -0.95117,-1.1875
c -23.24814,-29.0594 -35.68853,-73.5796 -33.16797,-107.5996 2.683,-36.2115 25.50983,-82.7753 56.48633,-107.5586
l -2.0625,1.6855 419.76566,-349.70893 0.6425,-0.51954
c 7.1259,-5.7896 14.9109,-10.91232 22.9727,-15.65039
V 864
c 0,-26.66661 -9.3334,-49.33337 -28,-68 -18.6666,-18.66663 -41.3334,-28 -68,-28
h -96
V 576
c 0,-70.66653 25.0001,-131.0001 75,-181 49.9999,-49.9999 110.3335,-75 181,-75 70.6665,0 131.0001,25.0001 181,75 49.9999,49.9999 75,110.33347 75,181
v 256
c 0,17.3333 6.3333,32.33336 19,45 12.6667,12.66664 27.6667,19 45,19
h 64
c 17.3333,0 32.3333,-6.33336 45,-19 12.6667,-12.66664 19,-27.6667 19,-45
V 576
c 1.3333,-121.99976 -42.3335,-227.33351 -131,-316 -88.6665,-88.66649 -194.3336,-132.66667 -317,-132
z

m 42.0879,916.0918
c -17.0995,0 -31.8668,5.0523 -44.3027,15.1562
l -419.1309,349.1797
c -3.8861,3.1092 -6.0234,7.2869 -6.41211,12.5332 -0.38872,5.2464 0.97098,9.813 4.08008,13.6993
l 36.14062,43.1367
c 3.10918,3.4976 7.19182,5.6348 12.24414,6.4121 4.66336,0.3888 9.3268,-0.971 13.99024,-4.0801
l 403.39063,-336.3555 403.3926,336.3555
c 3.109,2.7203 7.19,4.0801 12.2422,4.0801
h 1.748
c 5.0523,-0.7773 9.1333,-2.9145 12.2422,-6.4121
l 36.1426,-43.1367
c 3.1088,-3.8863 4.4688,-8.4529 4.08,-13.6993 -0.3884,-5.2463 -2.5258,-9.424 -6.4121,-12.5332
l -127.664,-106.0937
v -237.8399
c 0,-5.4405 -1.7487,-9.9084 -5.2461,-13.4062 -3.4976,-3.4975 -7.9656,-5.2461 -13.4063,-5.2461
h -111.9238
c -5.4407,0 -9.9106,1.7486 -13.4082,5.2461 -3.4977,3.4978 -5.2461,7.9657 -5.2461,13.4062
v 113.6739
l -142.2363,-118.92
c -12.436,-10.1039 -27.2054,-15.1562 -44.3047,-15.1562
z

m 0,150.9805 -335.18751,276.3125
c 0,0.3887 -0.0967,0.9707 -0.29101,1.748 -0.19428,0.7771 -0.29297,1.3613 -0.29297,1.75
v 279.8086
c 0,10.1043 3.69242,18.8484 11.07617,26.2324 7.38382,7.3838 16.12832,11.0762 26.23242,11.0762
h 223.8477
v -223.8477
h 149.2324
V 1792
h 223.8476
c 10.1041,0 18.8485,-3.6924 26.2325,-11.0762 7.3835,-7.384 11.0742,-16.1281 11.0742,-26.2324
v -279.8086
c 2e-4,-1.5546 -0.1934,-2.7207 -0.5821,-3.498
z" fill="#fff"/></svg>