<?xml version="1.0" encoding="utf-8"?>
<svg width="1792" height="1256" viewBox="0 0 1792 1256" xmlns="http://www.w3.org/2000/svg"><path d="m 218.6616 0.0032 c -25.4842 -0.1038 -50.7739 4.3187 -74.6985 13.089 c -42.3796 14.9144 -77.3151 41.7442 -104.6863 80.3725 c -26.1683 37.3736 -39.2768 79.0886 -39.2768 125.1741 v 818.6104 c 0 59.7939 21.2141 111.5339 63.5452 155.1165 c 43.6279 42.3796 95.368 63.5452 155.1165 63.5452 c 61.0875 0 112.7854 -21.1655 155.1618 -63.4965 c 43.6279 -43.6279 65.3868 -95.3712 65.3868 -155.1651 v -148.8427 c 0.4636 -32.2378 33.6644 -23.7593 50.4788 0 c 31.4013 54.4182 98.0493 101.1814 175.6757 100.9058 v 0.0454 c 77.5744 -0.3242 142.0501 -38.6575 175.6724 -100.9512 c 12.7389 -15.0084 48.6405 -40.6191 52.3464 0 v 148.8427 c 0 59.7939 21.1623 111.5339 63.4965 155.1165 c 43.6733 42.3796 95.3453 63.5452 155.1391 63.5452 c 61.0421 0 112.7854 -21.1655 155.1618 -63.4965 c 43.6279 -43.6279 65.39 -95.3712 65.39 -155.1651 v -818.6104 c 0 -46.0856 -13.6986 -87.8005 -41.073 -125.1741 c -26.2137 -38.6737 -60.4877 -65.4581 -102.8187 -80.3725 c -24.9168 -8.7509 -49.8304 -13.089 -74.7472 -13.089 c -67.2932 0 -123.9907 26.1651 -170.1217 78.5017 l -221.8909 259.6828 c -4.9574 3.7513 -21.4962 32.3124 -56.6035 32.3124 c -35.0132 0 -49.6391 -28.5579 -54.6419 -32.2638 l -223.8071 -259.7314 c -44.8308 -52.3366 -100.9123 -78.5017 -168.2055 -78.5017 z m 1382.7807 0.0227 c -52.3334 0 -97.1966 18.6917 -134.554 56.0523 c -36.1286 36.1253 -54.188 80.3531 -54.188 132.6897 c 0 52.3366 18.0594 97.1966 54.188 134.5572 c 37.3574 36.1253 82.2206 54.188 134.554 54.188 c 52.3366 0 97.1901 -18.0627 134.5799 -54.188 c 37.3606 -37.3606 56.0296 -82.2206 56.0296 -134.5572 c 0 -52.3366 -18.669 -96.5644 -56.0296 -132.6897 c -37.3898 -37.3606 -82.2433 -56.0523 -134.5799 -56.0523 z m 1.8448 414.8932 c -52.3366 0 -97.1966 18.6949 -134.5572 56.0555 c -37.3606 37.3898 -56.0296 82.2433 -56.0296 134.5799 v 461.6143 c 0 52.3334 18.669 97.1934 56.0296 134.554 c 37.3898 36.1286 82.253 54.188 134.5572 54.188 c 52.3658 0 96.6098 -18.0594 132.7351 -54.188 c 37.3606 -37.3606 56.0296 -82.2206 56.0296 -134.554 v -461.6143 c 0 -52.3658 -18.669 -97.2193 -56.0296 -134.5799 c -36.1545 -37.3606 -80.4017 -56.0555 -132.7351 -56.0555 z" fill="#fff"/></svg>